<svg width="1024" height="1024" viewBox="0 0 1024 1024" fill="none" xmlns="http://www.w3.org/2000/svg">
<g clip-path="url(#clip0_1_12)">
<path d="M179.388 -383C200.85 -383 219.755 -373.2 235.217 -358.609C250.569 -344.122 263.446 -324.141 273.806 -301.045C288.223 -268.903 298.558 -228.954 303.522 -184.819C331.567 -219.266 361.869 -247.284 391.383 -266.527C412.59 -280.354 434.231 -290.198 454.982 -294.083C475.882 -297.995 497.086 -296.014 515.143 -284.408C533.199 -272.802 543.807 -254.336 548.926 -233.7C554.009 -213.211 554.038 -189.438 550.268 -164.407C545.021 -129.578 532.124 -90.3893 512.451 -50.583C554.646 -64.403 595.27 -71.593 630.491 -71.8281C655.803 -71.9971 679.329 -68.5807 698.884 -60.6328C718.271 -52.7535 734.822 -39.9113 743.838 -20.8916L744.262 -19.9805L744.265 -19.9736C753.175 -0.443533 752.116 20.827 745.267 40.958C738.466 60.9449 725.641 80.9611 708.938 99.9795C685.695 126.445 653.658 152.438 615.588 175.29C658.554 186.478 696.614 202.388 726.371 221.229C747.756 234.768 765.7 250.358 777.856 267.616C790.099 284.999 797.108 305.107 794.061 326.353C791.013 347.602 778.628 364.929 761.988 378.164C745.466 391.305 723.856 401.214 699.523 408.188C665.661 417.891 624.653 422.444 580.271 421.083C610.36 453.727 633.774 487.694 648.617 519.636C659.284 542.59 665.95 565.41 666.839 586.503C667.735 607.748 662.749 628.456 648.68 644.675L648.679 644.674C634.628 660.889 614.847 668.761 593.7 670.895C572.696 673.014 549.159 669.666 524.917 662.374C491.191 652.229 454.242 633.889 417.654 608.744C425.319 652.478 426.654 693.711 421.872 728.607C418.436 753.689 411.704 776.493 401.049 794.722C390.318 813.082 374.933 827.811 354.336 833.862L354.327 833.865L354.318 833.868C333.722 839.899 312.823 835.818 293.875 826.172C275.063 816.594 257.078 801.05 240.632 781.809C217.748 755.034 196.582 719.624 179.388 678.684C162.194 719.623 141.029 755.034 118.145 781.809C101.699 801.05 83.7134 816.594 64.9007 826.172C45.9533 835.819 25.054 839.899 4.45831 833.868L4.44855 833.865L4.43976 833.862C-16.1569 827.811 -31.5419 813.082 -42.2731 794.722C-52.9278 776.493 -59.6597 753.689 -63.0964 728.607C-67.8778 693.711 -66.5443 652.478 -58.8786 608.744C-95.4667 633.888 -132.416 652.229 -166.141 662.374C-190.383 669.666 -213.919 673.014 -234.923 670.895C-256.071 668.761 -275.853 660.889 -289.904 644.674C-303.973 628.455 -308.959 607.748 -308.063 586.503C-307.174 565.41 -300.508 542.59 -289.841 519.636C-274.998 487.694 -251.584 453.727 -221.496 421.083C-265.878 422.443 -306.885 417.891 -340.747 408.188C-365.08 401.214 -386.69 391.305 -403.212 378.164C-419.852 364.929 -432.237 347.602 -435.285 326.353C-438.332 305.107 -431.323 284.999 -419.08 267.616C-406.924 250.358 -388.98 234.768 -367.595 221.229C-337.839 202.388 -299.778 186.478 -256.813 175.29C-294.882 152.438 -326.919 126.445 -350.162 99.9795C-366.865 80.9611 -379.69 60.9449 -386.491 40.958C-393.34 20.827 -394.399 -0.443544 -385.489 -19.9736L-385.485 -19.9805C-376.57 -39.5017 -359.803 -52.6284 -340.108 -60.6328C-320.553 -68.5807 -297.027 -71.9971 -271.715 -71.8281C-236.494 -71.593 -195.871 -64.4028 -153.676 -50.583C-173.348 -90.3892 -186.245 -129.578 -191.492 -164.407C-195.262 -189.438 -195.232 -213.211 -190.149 -233.7C-185.03 -254.336 -174.423 -272.802 -156.367 -284.408C-138.31 -296.014 -117.106 -297.995 -96.2057 -294.083C-75.4547 -290.198 -53.8138 -280.354 -32.6071 -266.527C-3.09363 -247.285 27.2084 -219.265 55.2532 -184.819C60.217 -228.954 70.5531 -268.903 84.97 -301.045C95.3296 -324.141 108.207 -344.122 123.559 -358.609C139.02 -373.2 157.926 -383 179.388 -383Z" fill="#FFECD4" stroke="#333333" style="fill:#FFECD4;fill:color(display-p3 1.0000 0.9255 0.8314);fill-opacity:1;stroke:#333333;stroke:color(display-p3 0.1988 0.1988 0.1988);stroke-opacity:1;" stroke-width="42"/>
</g>
<defs>
<clipPath id="clip0_1_12">
<rect width="1024" height="1024" fill="white" style="fill:white;fill-opacity:1;"/>
</clipPath>
</defs>
</svg>
