<svg width="1024" height="1024" viewBox="0 0 1024 1024" fill="none" xmlns="http://www.w3.org/2000/svg">
<g clip-path="url(#clip0_1_17)">
<mask id="path-1-outside-1_1_17" maskUnits="userSpaceOnUse" x="392.725" y="392.761" width="920" height="918" fill="black">
<rect fill="white" x="392.725" y="392.761" width="920" height="918"/>
<path d="M851.586 471.333C853.757 449.626 873.113 433.789 894.82 435.96C916.527 438.131 932.365 457.487 930.194 479.194L927.621 504.922C942.253 508.063 956.663 512.123 970.765 517.074L981.996 493.75C991.459 474.095 1015.06 465.832 1034.72 475.295C1054.38 484.758 1062.64 508.365 1053.18 528.02L1041.93 551.372C1054.53 559.281 1066.68 568.01 1078.3 577.534L1096.82 559.477C1112.45 544.249 1137.45 544.567 1152.68 560.188C1167.91 575.81 1167.59 600.818 1151.97 616.046L1133.45 634.103C1142.64 645.915 1151.05 658.274 1158.66 671.099L1182.27 660.454C1202.16 651.489 1225.55 660.343 1234.52 680.23C1243.48 700.118 1234.63 723.508 1214.74 732.474L1191.14 743.112C1195.72 757.301 1199.42 771.812 1202.2 786.564L1227.98 784.639C1249.73 783.013 1268.68 799.331 1270.31 821.086C1271.93 842.84 1255.62 861.793 1233.86 863.419L1208.08 865.345C1207.53 880.333 1206.03 895.218 1203.61 909.918L1228.52 916.93C1249.52 922.84 1261.75 944.655 1255.84 965.654C1249.93 986.653 1228.12 998.885 1207.12 992.975L1182.2 985.961C1176.58 999.794 1170.08 1013.29 1162.74 1026.35L1183.71 1041.44C1201.42 1054.17 1205.45 1078.86 1192.72 1096.57C1179.98 1114.28 1155.3 1118.31 1137.59 1105.57L1116.61 1090.48C1106.53 1101.63 1095.82 1112.07 1084.53 1121.76L1099.08 1143.11C1111.37 1161.14 1106.72 1185.71 1088.69 1198C1070.66 1210.29 1046.09 1205.63 1033.8 1187.6L1019.25 1166.25C1006.04 1173.23 992.404 1179.38 978.409 1184.66L984.777 1209.72C990.149 1230.87 977.365 1252.36 956.221 1257.73C935.078 1263.11 913.582 1250.32 908.21 1229.18L901.848 1204.14C894.461 1205.17 887.023 1205.96 879.542 1206.52C872.075 1207.08 864.614 1207.4 857.171 1207.48L854.601 1233.18C852.431 1254.89 833.074 1270.73 811.367 1268.56C789.66 1266.39 773.822 1247.03 775.993 1225.32L778.564 1199.61C763.945 1196.47 749.547 1192.42 735.457 1187.47L724.227 1210.78C714.757 1230.43 691.147 1238.68 671.495 1229.21C651.843 1219.74 643.59 1196.13 653.06 1176.48L664.283 1153.19C651.668 1145.28 639.504 1136.54 627.874 1127.01L609.349 1145.05C593.722 1160.27 568.714 1159.94 553.493 1144.32C538.272 1128.69 538.602 1103.68 554.229 1088.46L572.722 1070.45C563.508 1058.61 555.072 1046.22 547.454 1033.36L523.909 1043.98C504.021 1052.94 480.631 1044.09 471.666 1024.2C462.7 1004.32 471.555 980.925 491.442 971.959L514.986 961.345C510.414 947.176 506.722 932.686 503.95 917.955L478.171 919.882C456.416 921.507 437.462 905.189 435.837 883.435C434.211 861.68 450.53 842.727 472.284 841.102L498.063 839.175C498.616 824.169 500.12 809.266 502.543 794.55L477.682 787.536C456.687 781.612 444.468 759.79 450.391 738.794C456.315 717.799 478.138 705.58 499.134 711.504L523.965 718.51C529.585 704.68 536.082 691.191 543.428 678.128L522.444 663.051C504.728 650.321 500.686 625.64 513.416 607.924C526.146 590.208 550.827 586.166 568.543 598.895L589.568 614.003C599.637 602.867 610.35 592.435 621.63 582.749L607.056 561.362C594.772 543.334 599.428 518.762 617.456 506.478C635.484 494.193 660.056 498.849 672.341 516.877L686.915 538.266C700.125 531.275 713.771 525.12 727.774 519.842L721.41 494.794C716.038 473.651 728.823 452.156 749.967 446.783C771.11 441.411 792.605 454.196 797.977 475.339L804.337 500.37C811.711 499.349 819.136 498.557 826.603 497.999C834.084 497.44 841.558 497.12 849.015 497.034L851.586 471.333ZM878.84 889.944L770.03 1115.73C787.924 1121.37 806.398 1125.19 825.17 1127.1C825.283 1127.11 825.397 1127.11 825.511 1127.13C825.651 1127.14 825.79 1127.16 825.93 1127.17C841.687 1128.73 857.652 1128.94 873.656 1127.74C922.254 1124.11 968.569 1107.74 1008.2 1080.84C1008.35 1080.74 1008.49 1080.63 1008.64 1080.53C1008.79 1080.43 1008.94 1080.33 1009.1 1080.23C1028.7 1066.81 1046.65 1050.81 1062.42 1032.5C1067.55 1026.54 1072.41 1020.38 1076.98 1014.06C1077.09 1013.9 1077.2 1013.73 1077.32 1013.58C1077.43 1013.42 1077.54 1013.27 1077.66 1013.12C1107.53 971.409 1125.15 922.268 1128.67 871.278L878.84 889.944ZM666.472 648.56C658.473 655.887 650.873 663.716 643.723 672.02C638.668 677.893 633.881 683.952 629.369 690.18C629.207 690.416 629.044 690.652 628.876 690.886C628.681 691.157 628.483 691.425 628.282 691.69C610.053 717.208 596.407 745.499 587.764 775.288C587.606 775.993 587.43 776.699 587.231 777.402C587.035 778.097 586.821 778.783 586.591 779.458C578.365 809.565 575.222 841.127 577.592 872.844C579.973 904.709 587.832 935.592 600.545 964.255C600.796 964.755 601.04 965.261 601.272 965.776C601.504 966.29 601.721 966.808 601.93 967.326C614.826 995.474 632.433 1021.41 654.15 1043.95C654.553 1044.33 654.952 1044.72 655.343 1045.12C655.715 1045.5 656.075 1045.89 656.429 1046.28C661.668 1051.59 667.138 1056.71 672.833 1061.61C681.149 1068.77 689.84 1075.39 698.853 1081.46L807.636 855.726L666.472 648.56ZM1033.31 642.911C977.79 595.109 905.552 571.32 832.49 576.779C816.508 577.973 800.773 580.545 785.441 584.416C785.284 584.458 785.127 584.503 784.97 584.543C784.849 584.574 784.728 584.6 784.607 584.63C766.323 589.307 748.617 595.833 731.757 604.075L872.872 811.17L1122.78 792.498C1109.96 734.632 1078.76 682.038 1033.31 642.911Z"/>
</mask>
<path d="M851.586 471.333C853.757 449.626 873.113 433.789 894.82 435.96C916.527 438.131 932.365 457.487 930.194 479.194L927.621 504.922C942.253 508.063 956.663 512.123 970.765 517.074L981.996 493.75C991.459 474.095 1015.06 465.832 1034.72 475.295C1054.38 484.758 1062.64 508.365 1053.18 528.02L1041.93 551.372C1054.53 559.281 1066.68 568.01 1078.3 577.534L1096.82 559.477C1112.45 544.249 1137.45 544.567 1152.68 560.188C1167.91 575.81 1167.59 600.818 1151.97 616.046L1133.45 634.103C1142.64 645.915 1151.05 658.274 1158.66 671.099L1182.27 660.454C1202.16 651.489 1225.55 660.343 1234.52 680.23C1243.48 700.118 1234.63 723.508 1214.74 732.474L1191.14 743.112C1195.72 757.301 1199.42 771.812 1202.2 786.564L1227.98 784.639C1249.73 783.013 1268.68 799.331 1270.31 821.086C1271.93 842.84 1255.62 861.793 1233.86 863.419L1208.08 865.345C1207.53 880.333 1206.03 895.218 1203.61 909.918L1228.52 916.93C1249.52 922.84 1261.75 944.655 1255.84 965.654C1249.93 986.653 1228.12 998.885 1207.12 992.975L1182.2 985.961C1176.58 999.794 1170.08 1013.29 1162.74 1026.35L1183.71 1041.44C1201.42 1054.17 1205.45 1078.86 1192.72 1096.57C1179.98 1114.28 1155.3 1118.31 1137.59 1105.57L1116.61 1090.48C1106.53 1101.63 1095.82 1112.07 1084.53 1121.76L1099.08 1143.11C1111.37 1161.14 1106.72 1185.71 1088.69 1198C1070.66 1210.29 1046.09 1205.63 1033.8 1187.6L1019.25 1166.25C1006.04 1173.23 992.404 1179.38 978.409 1184.66L984.777 1209.72C990.149 1230.87 977.365 1252.36 956.221 1257.73C935.078 1263.11 913.582 1250.32 908.21 1229.18L901.848 1204.14C894.461 1205.17 887.023 1205.96 879.542 1206.52C872.075 1207.08 864.614 1207.4 857.171 1207.48L854.601 1233.18C852.431 1254.89 833.074 1270.73 811.367 1268.56C789.66 1266.39 773.822 1247.03 775.993 1225.32L778.564 1199.61C763.945 1196.47 749.547 1192.42 735.457 1187.47L724.227 1210.78C714.757 1230.43 691.147 1238.68 671.495 1229.21C651.843 1219.74 643.59 1196.13 653.06 1176.48L664.283 1153.19C651.668 1145.28 639.504 1136.54 627.874 1127.01L609.349 1145.05C593.722 1160.27 568.714 1159.94 553.493 1144.32C538.272 1128.69 538.602 1103.68 554.229 1088.46L572.722 1070.45C563.508 1058.61 555.072 1046.22 547.454 1033.36L523.909 1043.98C504.021 1052.94 480.631 1044.09 471.666 1024.2C462.7 1004.32 471.555 980.925 491.442 971.959L514.986 961.345C510.414 947.176 506.722 932.686 503.95 917.955L478.171 919.882C456.416 921.507 437.462 905.189 435.837 883.435C434.211 861.68 450.53 842.727 472.284 841.102L498.063 839.175C498.616 824.169 500.12 809.266 502.543 794.55L477.682 787.536C456.687 781.612 444.468 759.79 450.391 738.794C456.315 717.799 478.138 705.58 499.134 711.504L523.965 718.51C529.585 704.68 536.082 691.191 543.428 678.128L522.444 663.051C504.728 650.321 500.686 625.64 513.416 607.924C526.146 590.208 550.827 586.166 568.543 598.895L589.568 614.003C599.637 602.867 610.35 592.435 621.63 582.749L607.056 561.362C594.772 543.334 599.428 518.762 617.456 506.478C635.484 494.193 660.056 498.849 672.341 516.877L686.915 538.266C700.125 531.275 713.771 525.12 727.774 519.842L721.41 494.794C716.038 473.651 728.823 452.156 749.967 446.783C771.11 441.411 792.605 454.196 797.977 475.339L804.337 500.37C811.711 499.349 819.136 498.557 826.603 497.999C834.084 497.44 841.558 497.12 849.015 497.034L851.586 471.333ZM878.84 889.944L770.03 1115.73C787.924 1121.37 806.398 1125.19 825.17 1127.1C825.283 1127.11 825.397 1127.11 825.511 1127.13C825.651 1127.14 825.79 1127.16 825.93 1127.17C841.687 1128.73 857.652 1128.94 873.656 1127.74C922.254 1124.11 968.569 1107.74 1008.2 1080.84C1008.35 1080.74 1008.49 1080.63 1008.64 1080.53C1008.79 1080.43 1008.94 1080.33 1009.1 1080.23C1028.7 1066.81 1046.65 1050.81 1062.42 1032.5C1067.55 1026.54 1072.41 1020.38 1076.98 1014.06C1077.09 1013.9 1077.2 1013.73 1077.32 1013.58C1077.43 1013.42 1077.54 1013.27 1077.66 1013.12C1107.53 971.409 1125.15 922.268 1128.67 871.278L878.84 889.944ZM666.472 648.56C658.473 655.887 650.873 663.716 643.723 672.02C638.668 677.893 633.881 683.952 629.369 690.18C629.207 690.416 629.044 690.652 628.876 690.886C628.681 691.157 628.483 691.425 628.282 691.69C610.053 717.208 596.407 745.499 587.764 775.288C587.606 775.993 587.43 776.699 587.231 777.402C587.035 778.097 586.821 778.783 586.591 779.458C578.365 809.565 575.222 841.127 577.592 872.844C579.973 904.709 587.832 935.592 600.545 964.255C600.796 964.755 601.04 965.261 601.272 965.776C601.504 966.29 601.721 966.808 601.93 967.326C614.826 995.474 632.433 1021.41 654.15 1043.95C654.553 1044.33 654.952 1044.72 655.343 1045.12C655.715 1045.5 656.075 1045.89 656.429 1046.28C661.668 1051.59 667.138 1056.71 672.833 1061.61C681.149 1068.77 689.84 1075.39 698.853 1081.46L807.636 855.726L666.472 648.56ZM1033.31 642.911C977.79 595.109 905.552 571.32 832.49 576.779C816.508 577.973 800.773 580.545 785.441 584.416C785.284 584.458 785.127 584.503 784.97 584.543C784.849 584.574 784.728 584.6 784.607 584.63C766.323 589.307 748.617 595.833 731.757 604.075L872.872 811.17L1122.78 792.498C1109.96 734.632 1078.76 682.038 1033.31 642.911Z" fill="#D1D5DC" style="fill:#D1D5DC;fill:color(display-p3 0.8196 0.8353 0.8627);fill-opacity:1;"/>
<path d="M851.586 471.333C853.757 449.626 873.113 433.789 894.82 435.96C916.527 438.131 932.365 457.487 930.194 479.194L927.621 504.922C942.253 508.063 956.663 512.123 970.765 517.074L981.996 493.75C991.459 474.095 1015.06 465.832 1034.72 475.295C1054.38 484.758 1062.64 508.365 1053.18 528.02L1041.93 551.372C1054.53 559.281 1066.68 568.01 1078.3 577.534L1096.82 559.477C1112.45 544.249 1137.45 544.567 1152.68 560.188C1167.91 575.81 1167.59 600.818 1151.97 616.046L1133.45 634.103C1142.64 645.915 1151.05 658.274 1158.66 671.099L1182.27 660.454C1202.16 651.489 1225.55 660.343 1234.52 680.23C1243.48 700.118 1234.63 723.508 1214.74 732.474L1191.14 743.112C1195.72 757.301 1199.42 771.812 1202.2 786.564L1227.98 784.639C1249.73 783.013 1268.68 799.331 1270.31 821.086C1271.93 842.84 1255.62 861.793 1233.86 863.419L1208.08 865.345C1207.53 880.333 1206.03 895.218 1203.61 909.918L1228.52 916.93C1249.52 922.84 1261.75 944.655 1255.84 965.654C1249.93 986.653 1228.12 998.885 1207.12 992.975L1182.2 985.961C1176.58 999.794 1170.08 1013.29 1162.74 1026.35L1183.71 1041.44C1201.42 1054.17 1205.45 1078.86 1192.72 1096.57C1179.98 1114.28 1155.3 1118.31 1137.59 1105.57L1116.61 1090.48C1106.53 1101.63 1095.82 1112.07 1084.53 1121.76L1099.08 1143.11C1111.37 1161.14 1106.72 1185.71 1088.69 1198C1070.66 1210.29 1046.09 1205.63 1033.8 1187.6L1019.25 1166.25C1006.04 1173.23 992.404 1179.38 978.409 1184.66L984.777 1209.72C990.149 1230.87 977.365 1252.36 956.221 1257.73C935.078 1263.11 913.582 1250.32 908.21 1229.18L901.848 1204.14C894.461 1205.17 887.023 1205.96 879.542 1206.52C872.075 1207.08 864.614 1207.4 857.171 1207.48L854.601 1233.18C852.431 1254.89 833.074 1270.73 811.367 1268.56C789.66 1266.39 773.822 1247.03 775.993 1225.32L778.564 1199.61C763.945 1196.47 749.547 1192.42 735.457 1187.47L724.227 1210.78C714.757 1230.43 691.147 1238.68 671.495 1229.21C651.843 1219.74 643.59 1196.13 653.06 1176.48L664.283 1153.19C651.668 1145.28 639.504 1136.54 627.874 1127.01L609.349 1145.05C593.722 1160.27 568.714 1159.94 553.493 1144.32C538.272 1128.69 538.602 1103.68 554.229 1088.46L572.722 1070.45C563.508 1058.61 555.072 1046.22 547.454 1033.36L523.909 1043.98C504.021 1052.94 480.631 1044.09 471.666 1024.2C462.7 1004.32 471.555 980.925 491.442 971.959L514.986 961.345C510.414 947.176 506.722 932.686 503.95 917.955L478.171 919.882C456.416 921.507 437.462 905.189 435.837 883.435C434.211 861.68 450.53 842.727 472.284 841.102L498.063 839.175C498.616 824.169 500.12 809.266 502.543 794.55L477.682 787.536C456.687 781.612 444.468 759.79 450.391 738.794C456.315 717.799 478.138 705.58 499.134 711.504L523.965 718.51C529.585 704.68 536.082 691.191 543.428 678.128L522.444 663.051C504.728 650.321 500.686 625.64 513.416 607.924C526.146 590.208 550.827 586.166 568.543 598.895L589.568 614.003C599.637 602.867 610.35 592.435 621.63 582.749L607.056 561.362C594.772 543.334 599.428 518.762 617.456 506.478C635.484 494.193 660.056 498.849 672.341 516.877L686.915 538.266C700.125 531.275 713.771 525.12 727.774 519.842L721.41 494.794C716.038 473.651 728.823 452.156 749.967 446.783C771.11 441.411 792.605 454.196 797.977 475.339L804.337 500.37C811.711 499.349 819.136 498.557 826.603 497.999C834.084 497.44 841.558 497.12 849.015 497.034L851.586 471.333ZM878.84 889.944L770.03 1115.73C787.924 1121.37 806.398 1125.19 825.17 1127.1C825.283 1127.11 825.397 1127.11 825.511 1127.13C825.651 1127.14 825.79 1127.16 825.93 1127.17C841.687 1128.73 857.652 1128.94 873.656 1127.74C922.254 1124.11 968.569 1107.74 1008.2 1080.84C1008.35 1080.74 1008.49 1080.63 1008.64 1080.53C1008.79 1080.43 1008.94 1080.33 1009.1 1080.23C1028.7 1066.81 1046.65 1050.81 1062.42 1032.5C1067.55 1026.54 1072.41 1020.38 1076.98 1014.06C1077.09 1013.9 1077.2 1013.73 1077.32 1013.58C1077.43 1013.42 1077.54 1013.27 1077.66 1013.12C1107.53 971.409 1125.15 922.268 1128.67 871.278L878.84 889.944ZM666.472 648.56C658.473 655.887 650.873 663.716 643.723 672.02C638.668 677.893 633.881 683.952 629.369 690.18C629.207 690.416 629.044 690.652 628.876 690.886C628.681 691.157 628.483 691.425 628.282 691.69C610.053 717.208 596.407 745.499 587.764 775.288C587.606 775.993 587.43 776.699 587.231 777.402C587.035 778.097 586.821 778.783 586.591 779.458C578.365 809.565 575.222 841.127 577.592 872.844C579.973 904.709 587.832 935.592 600.545 964.255C600.796 964.755 601.04 965.261 601.272 965.776C601.504 966.29 601.721 966.808 601.93 967.326C614.826 995.474 632.433 1021.41 654.15 1043.95C654.553 1044.33 654.952 1044.72 655.343 1045.12C655.715 1045.5 656.075 1045.89 656.429 1046.28C661.668 1051.59 667.138 1056.71 672.833 1061.61C681.149 1068.77 689.84 1075.39 698.853 1081.46L807.636 855.726L666.472 648.56ZM1033.31 642.911C977.79 595.109 905.552 571.32 832.49 576.779C816.508 577.973 800.773 580.545 785.441 584.416C785.284 584.458 785.127 584.503 784.97 584.543C784.849 584.574 784.728 584.6 784.607 584.63C766.323 589.307 748.617 595.833 731.757 604.075L872.872 811.17L1122.78 792.498C1109.96 734.632 1078.76 682.038 1033.31 642.911Z" stroke="#454545" style="stroke:#454545;stroke:color(display-p3 0.2715 0.2715 0.2715);stroke-opacity:1;" stroke-width="84" stroke-linecap="round" stroke-linejoin="round" mask="url(#path-1-outside-1_1_17)"/>
</g>
<defs>
<clipPath id="clip0_1_17">
<rect width="1024" height="1024" fill="white" style="fill:white;fill-opacity:1;"/>
</clipPath>
</defs>
</svg>
